<svg width="720" height="960" viewBox="0 0 720 960" fill="none" xmlns="http://www.w3.org/2000/svg">
  <rect width="720" height="960" rx="36" fill="#F5F9FF"/>
  <rect x="36" y="36" width="648" height="888" rx="28" fill="url(#card)"/>
  <circle cx="610" cy="110" r="88" fill="rgba(255,255,255,0.12)"/>
  <circle cx="96" cy="842" r="110" fill="rgba(255,255,255,0.10)"/>
  <text x="84" y="138" fill="#FFFFFF" font-size="26" font-family="Microsoft YaHei, PingFang SC, sans-serif" font-weight="700">华侨大学 交流群</text>
  <text x="84" y="188" fill="rgba(255,255,255,0.86)" font-size="24" font-family="Microsoft YaHei, PingFang SC, sans-serif">活动通知 / 闲置信息 / 校园问答</text>
  <rect x="120" y="252" width="480" height="480" rx="28" fill="#FFFFFF"/>
  <g fill="#2D5BDB">
    <rect x="164" y="296" width="92" height="92" rx="10"/>
    <rect x="184" y="316" width="52" height="52" rx="6" fill="#FFFFFF"/>
    <rect x="464" y="296" width="92" height="92" rx="10"/>
    <rect x="484" y="316" width="52" height="52" rx="6" fill="#FFFFFF"/>
    <rect x="164" y="576" width="92" height="92" rx="10"/>
    <rect x="184" y="596" width="52" height="52" rx="6" fill="#FFFFFF"/>
    <rect x="308" y="316" width="24" height="24" rx="4"/>
    <rect x="344" y="316" width="24" height="24" rx="4"/>
    <rect x="380" y="316" width="24" height="24" rx="4"/>
    <rect x="308" y="352" width="24" height="24" rx="4"/>
    <rect x="380" y="352" width="24" height="24" rx="4"/>
    <rect x="272" y="388" width="24" height="24" rx="4"/>
    <rect x="344" y="388" width="24" height="24" rx="4"/>
    <rect x="416" y="388" width="24" height="24" rx="4"/>
    <rect x="308" y="424" width="24" height="24" rx="4"/>
    <rect x="344" y="424" width="24" height="24" rx="4"/>
    <rect x="416" y="424" width="24" height="24" rx="4"/>
    <rect x="272" y="460" width="24" height="24" rx="4"/>
    <rect x="344" y="460" width="24" height="24" rx="4"/>
    <rect x="380" y="460" width="24" height="24" rx="4"/>
    <rect x="272" y="496" width="24" height="24" rx="4"/>
    <rect x="308" y="496" width="24" height="24" rx="4"/>
    <rect x="380" y="496" width="24" height="24" rx="4"/>
    <rect x="416" y="496" width="24" height="24" rx="4"/>
    <rect x="308" y="532" width="24" height="24" rx="4"/>
    <rect x="344" y="532" width="24" height="24" rx="4"/>
    <rect x="416" y="532" width="24" height="24" rx="4"/>
    <rect x="272" y="568" width="24" height="24" rx="4"/>
    <rect x="344" y="568" width="24" height="24" rx="4"/>
    <rect x="380" y="568" width="24" height="24" rx="4"/>
    <rect x="416" y="568" width="24" height="24" rx="4"/>
    <rect x="308" y="604" width="24" height="24" rx="4"/>
    <rect x="380" y="604" width="24" height="24" rx="4"/>
    <rect x="416" y="604" width="24" height="24" rx="4"/>
    <rect x="272" y="640" width="24" height="24" rx="4"/>
    <rect x="308" y="640" width="24" height="24" rx="4"/>
    <rect x="344" y="640" width="24" height="24" rx="4"/>
    <rect x="416" y="640" width="24" height="24" rx="4"/>
  </g>
  <text x="360" y="804" text-anchor="middle" fill="#FFFFFF" font-size="26" font-family="Microsoft YaHei, PingFang SC, sans-serif" font-weight="600">扫码进入演示群</text>
  <text x="360" y="848" text-anchor="middle" fill="rgba(255,255,255,0.82)" font-size="20" font-family="Microsoft YaHei, PingFang SC, sans-serif">用于展示弹窗与入群引导效果</text>
  <defs>
    <linearGradient id="card" x1="36" y1="36" x2="684" y2="924" gradientUnits="userSpaceOnUse">
      <stop stop-color="#B7D0FF"/>
      <stop offset="1" stop-color="#2D5BDB"/>
    </linearGradient>
  </defs>
</svg>