<svg width="96" height="96" viewBox="0 0 96 96" fill="none" xmlns="http://www.w3.org/2000/svg">
  <rect width="96" height="96" rx="26" fill="url(#bg)"/>
  <rect x="8" y="8" width="80" height="80" rx="22" fill="rgba(255,255,255,0.18)" stroke="rgba(255,255,255,0.48)" stroke-width="2"/>
  <path d="M28 31H48C61 31 68 38 68 49C68 60 61 67 48 67H28V31ZM44 57C51 57 54 54 54 49C54 44 51 41 44 41H40V57H44Z" fill="white"/>
  <path d="M58 25H68V55C68 66 62 72 51 72H48V62H50C55 62 58 60 58 54V25Z" fill="#F2E8FF"/>
  <defs>
    <linearGradient id="bg" x1="12" y1="10" x2="84" y2="86" gradientUnits="userSpaceOnUse">
      <stop stop-color="#9F8BFF"/>
      <stop offset="1" stop-color="#7A63F6"/>
    </linearGradient>
  </defs>
</svg>
